<?xml version="1.0" encoding="utf-8"?>
<!-- Generator: Adobe Illustrator 16.0.0, SVG Export Plug-In . SVG Version: 6.00 Build 0)  -->
<!DOCTYPE svg PUBLIC "-//W3C//DTD SVG 1.1//EN" "http://www.w3.org/Graphics/SVG/1.1/DTD/svg11.dtd">
<svg version="1.1" id="Layer_1" xmlns="http://www.w3.org/2000/svg" xmlns:xlink="http://www.w3.org/1999/xlink" x="0px" y="0px"
	 width="318.271px" height="53.908px" viewBox="0 0 318.271 53.908" enable-background="new 0 0 318.271 53.908"
	 xml:space="preserve">
<text transform="matrix(1 0 0 1 0 39.9492)" fill="#1D1D1D" font-family="'Gotham-Light'" font-size="45" letter-spacing="-1">U</text>
<text transform="matrix(1 0 0 1 31.6348 39.9492)" fill="#1D1D1D" font-family="'Gotham-Light'" font-size="45">C</text>
<text transform="matrix(1 0 0 1 63.1338 39.9492)" fill="#1D1D1D" font-family="'Gotham-Light'" font-size="45" letter-spacing="-1">h</text>
<text transform="matrix(1 0 0 1 88.4692 39.9492)" fill="#1D1D1D" font-family="'Gotham-Light'" font-size="45" letter-spacing="-1">i</text>
<text transform="matrix(1 0 0 1 97.5591 39.9492)" fill="#1D1D1D" font-family="'Gotham-Light'" font-size="45" letter-spacing="-1">c</text>
<text transform="matrix(1 0 0 1 121.1841 39.9492)" fill="#1D1D1D" font-family="'Gotham-Light'" font-size="45" letter-spacing="-1">a</text>
<text transform="matrix(1 0 0 1 144.854 39.9492)" fill="#1D1D1D" font-family="'Gotham-Light'" font-size="45" letter-spacing="-1">g</text>
<text transform="matrix(1 0 0 1 171.9873 39.9492)" fill="#1D1D1D" font-family="'Gotham-Light'" font-size="45" letter-spacing="-1">o</text>
<text transform="matrix(1 0 0 1 197.9521 39.9492)" fill="#1D1D1D" font-family="'Gotham-Bold'" font-size="47" letter-spacing="-2">N</text>
<text transform="matrix(1 0 0 1 232.0264 39.9492)" fill="#1D1D1D" font-family="'Gotham-Bold'" font-size="47" letter-spacing="-2">e</text>
<text transform="matrix(1 0 0 1 257.3604 39.9492)" fill="#1D1D1D" font-family="'Gotham-Bold'" font-size="47" letter-spacing="-2">w</text>
<text transform="matrix(1 0 0 1 294.6787 39.9492)" fill="#1D1D1D" font-family="'Gotham-Bold'" font-size="47">s</text>
</svg>
