<?xml version="1.0" encoding="utf-8"?>
<!-- Generator: Adobe Illustrator 16.0.0, SVG Export Plug-In . SVG Version: 6.00 Build 0)  -->
<!DOCTYPE svg PUBLIC "-//W3C//DTD SVG 1.1//EN" "http://www.w3.org/Graphics/SVG/1.1/DTD/svg11.dtd">
<svg version="1.1" id="CMYK_Gray" xmlns="http://www.w3.org/2000/svg" xmlns:xlink="http://www.w3.org/1999/xlink" x="0px" y="0px"
	 width="756px" height="151.998px" viewBox="0 0 756 151.998" style="enable-background:new 0 0 756 151.998;" xml:space="preserve"
	>
<style type="text/css">
<![CDATA[
	.st0{fill:#747575;}
]]>
</style>
<g>
	<path class="st0" d="M741.915,11.437l0.047-0.091l-0.006-0.102c-0.098-1.789-0.152-4.098-0.152-6.504V4.264l-0.465,0.105
		c-0.598,0.137-3.644,0.137-6.587,0.137h-9.1c-1.86,0-3.516-0.042-5.712-0.146l-0.098-0.005l-0.088,0.043
		c-0.409,0.2-0.477,0.78-0.488,0.954c-0.028,0.433,0.098,0.775,0.347,0.939l0.952,0.158c2.51,0.303,2.633,0.576,2.633,5.855v17.798
		c0,5.228-0.123,5.499-2.632,5.802l-1.364,0.163l-0.094,0.092c-0.282,0.279-0.326,0.739-0.271,1.075
		c0.058,0.368,0.228,0.647,0.464,0.767l0.089,0.045l0.099-0.005c2.314-0.095,3.982-0.147,6.164-0.147
		c1.997,0,3.709,0.054,6.565,0.147l0.095,0.003l0.087-0.043c0.324-0.162,0.463-0.602,0.485-0.96c0.025-0.428-0.102-0.767-0.35-0.929
		l-1.854-0.208c-2.521-0.214-2.67-0.54-2.67-5.801v-6.875c0-0.955,0-0.955,1.252-0.955h3.363c1.734,0,3.028,0.04,3.69,0.229
		c0.694,0.221,1.069,0.675,1.332,1.609l0.52,2.047l0.092,0.078c0.489,0.42,1.538,0.397,1.852-0.079l0.063-0.095V25.95
		c0-0.514-0.039-1.174-0.083-1.908c-0.053-0.897-0.112-1.913-0.112-2.889c0-1.002,0.06-2.061,0.112-2.995
		c0.043-0.769,0.083-1.463,0.083-1.999v-0.114l-0.063-0.096c-0.234-0.354-0.736-0.392-0.94-0.392c-0.411,0-0.768,0.134-0.956,0.358
		l-0.521,2.136c-0.277,1.199-0.61,1.318-0.986,1.453c-0.522,0.175-2.049,0.279-4.081,0.279h-3.363c-1.252,0-1.252,0-1.252-0.954
		V8.397c0-1.598,0-1.598,1.105-1.598h3.015c2.044,0,3.657,0,4.699,0.286c2.12,0.552,2.754,1.97,3.183,4.396l0.023,0.133l0.103,0.088
		c0.19,0.164,0.456,0.254,0.748,0.254C741.268,11.957,741.733,11.796,741.915,11.437L741.915,11.437z M708.732,21.052
		c0-8.349-5.487-17.335-17.537-17.335c-10.251,0-17.982,7.666-17.982,17.833c0,8.516,6.178,17.138,17.982,17.138
		C701.193,38.687,708.732,31.105,708.732,21.052L708.732,21.052z M703.028,22.587c0,10.191-6.028,13.808-11.188,13.808
		c-10.2,0-12.923-10.327-12.923-16.429c0-10.302,6.162-13.958,11.439-13.958C699.71,6.008,703.028,14.939,703.028,22.587
		L703.028,22.587z M662.588,106.869c0,21.356,15.898,40.223,42.239,40.223c22.901,0,41.173-17.441,41.173-41.409
		c0-20.881-13.766-40.696-41.173-40.696C680.386,64.986,662.588,83.139,662.588,106.869L662.588,106.869z M674.453,103.072
		c0-25.983,16.017-34.409,28.358-34.409c22.661,0,31.323,21.12,31.323,40.7c0,23.372-13.526,34.052-27.765,34.052
		C682.996,143.415,674.453,120.632,674.453,103.072L674.453,103.072z M648.237,6.263c0.252-0.22,0.386-0.577,0.357-0.955
		s-0.217-0.711-0.503-0.89l-0.103-0.064l-0.121,0.007c-3.516,0.205-5.587,0.204-9.303,0l-0.101-0.006l-0.092,0.046
		c-0.274,0.138-0.465,0.417-0.521,0.763c-0.065,0.399,0.059,0.812,0.323,1.08l0.095,0.095l1.019,0.112
		c0.961,0.12,1.558,0.354,1.732,0.484c-0.156,0.708-1.886,3.916-2.935,5.862l-0.227,0.42c-1.19,2.302-2.564,4.783-4.303,7.764
		c-1.302-2.354-2.573-4.942-3.805-7.451c-0.483-0.984-0.966-1.966-1.448-2.929c-0.356-0.716-1.474-3.243-1.493-3.636
		c0-0.1,0.229-0.298,1.755-0.517l0.768-0.116l0.089-0.09c0.268-0.27,0.383-0.757,0.278-1.183c-0.081-0.339-0.294-0.587-0.582-0.681
		l-0.072-0.024l-0.075,0.006c-1.213,0.096-2.981,0.145-5.261,0.145c-2.288,0-4.102-0.046-5.708-0.146l-0.112-0.007l-0.101,0.057
		c-0.241,0.139-0.407,0.398-0.464,0.73c-0.067,0.397,0.035,0.812,0.269,1.083l0.088,0.102l1.519,0.27
		c1.31,0.221,1.967,0.332,3.632,3.555l5.83,11.375c1.397,2.691,1.542,3.248,1.542,5.957v2.52c0,5.366-0.123,5.642-2.623,5.903
		l-1.67,0.16l-0.095,0.097c-0.282,0.283-0.323,0.745-0.267,1.083c0.06,0.364,0.23,0.64,0.467,0.757l0.086,0.044l0.097-0.004
		c2.664-0.097,4.396-0.147,6.462-0.147c2.007,0,3.777,0.056,6.712,0.147l0.096,0.003l0.085-0.043
		c0.238-0.118,0.41-0.397,0.468-0.764c0.055-0.338,0.012-0.798-0.272-1.079l-0.099-0.098l-2.016-0.158
		c-2.288-0.172-2.616-0.549-2.616-5.902v-2.572c0-3.705,0.106-4.07,2.271-7.817l3.115-5.389c0.284-0.486,0.554-0.958,0.813-1.413
		c1.944-3.397,3.349-5.853,5.449-6.217l1.489-0.263L648.237,6.263L648.237,6.263z M630.911,66.766
		c-2.019-0.476-8.307-1.78-15.07-1.78c-17.917,0-29.663,5.574-37.612,13.881c-7.356,7.831-10.681,18.035-10.681,28.122
		c0,10.44,3.799,19.813,10.917,26.933c9.136,9.256,22.07,13.172,36.189,13.172c6.407,0,14.949-1.425,21.24-3.085
		c2.252-0.594,4.391-1.069,5.811-1.069c0.478-0.355,0.478-1.068,0.121-1.423c-2.134-0.831-2.847-3.678-2.847-8.424v-6.646
		c0-6.051,0.118-9.373,5.1-9.967l1.901-0.238c0.828-0.711,0.71-2.489-0.119-2.965c-3.916,0.235-7.952,0.354-12.578,0.354
		c-7.001,0-13.526-0.118-16.967-0.354c-0.831,0.354-0.95,2.491,0,2.965l5.221,0.596c7.355,0.829,7.711,1.543,7.711,11.508v4.747
		c0,3.795-0.592,5.933-1.184,6.762c-1.309,2.017-5.696,3.561-13.056,3.561c-23.849,0-35.597-17.919-35.597-40.698
		c0-17.797,10.09-34.172,33.106-34.172c12.103,0,21.001,4.034,24.324,16.849c0.713,0.711,2.85,0.595,3.204-0.356
		c-1.067-7.119-1.781-13.289-1.781-17.204C636.843,68.071,633.164,67.24,630.911,66.766L630.911,66.766z M610.685,3.75l0.036-0.138
		l-0.062-0.128c-0.182-0.368-0.693-0.409-0.906-0.409c-0.123,0-0.305,0.013-0.465,0.077l-0.124,0.049l-0.066,0.115
		c-0.634,1.102-0.897,1.19-3.528,1.19h-20.437c-2.213,0-3.205-0.115-3.41-1.221L581.7,3.169l-0.085-0.084
		c-0.138-0.137-0.36-0.203-0.682-0.203c-0.118,0-0.519,0.01-0.737,0.156l-0.136,0.091l-0.028,0.16
		c-0.347,1.976-1.078,5.105-1.862,7.306l-0.055,0.153l0.072,0.146c0.3,0.595,1.312,0.886,1.854,0.478l0.08-0.06l0.041-0.092
		c0.503-1.145,0.978-2.227,2.131-3.284c1.091-1.001,3.558-1.136,5.827-1.136h2.72c1.102,0,1.102,0,1.102,1.2v22.104
		c0,5.356-0.309,5.589-2.717,5.801l-1.779,0.147l-0.168,0.054c-0.296,0.182-0.461,0.552-0.441,0.991
		c0.016,0.333,0.147,0.746,0.472,0.906l0.086,0.042l0.095-0.003c3.025-0.092,4.852-0.147,6.859-0.147
		c1.933,0,3.527,0.047,6.462,0.147l0.096,0.003l0.086-0.042c0.407-0.201,0.476-0.781,0.487-0.954
		c0.027-0.431-0.099-0.771-0.345-0.936l-1.758-0.209c-2.474-0.214-2.619-0.539-2.619-5.801V7.939
		c-0.002-0.501-0.002-0.976,0.078-1.056c0.084-0.084,0.62-0.084,0.977-0.084h3.508c2.648,0,4.452,0.38,5.51,1.162
		c0.467,0.343,0.871,1.595,1.084,3.349l0.012,0.11l0.071,0.085c0.182,0.221,0.516,0.353,0.897,0.353c0.47,0,0.861-0.202,1.022-0.525
		l0.048-0.098l-0.011-0.109C609.811,9.708,610.151,5.727,610.685,3.75L610.685,3.75z M565.61,30.003v-17.6
		c0-5.403,0.149-5.737,2.662-5.95l1.339-0.106l0.082-0.056c0.246-0.165,0.371-0.506,0.344-0.938
		c-0.011-0.173-0.08-0.754-0.485-0.954l-0.086-0.043l-0.097,0.004c-2.339,0.092-4.089,0.146-6.116,0.146
		c-2.122,0-3.821-0.051-6.216-0.146l-0.098-0.004L556.852,4.4c-0.403,0.202-0.471,0.784-0.482,0.958
		c-0.027,0.43,0.098,0.77,0.344,0.934l0.082,0.056l1.333,0.105c2.52,0.214,2.669,0.547,2.669,5.951v17.6
		c0,5.323-0.125,5.599-2.682,5.903l-1.367,0.163l-0.093,0.093c-0.28,0.281-0.322,0.741-0.269,1.079
		c0.059,0.365,0.228,0.644,0.464,0.762l0.088,0.044l0.099-0.004c2.516-0.097,4.168-0.147,6.216-0.147
		c1.964,0,3.601,0.05,6.116,0.147l0.097,0.004l0.087-0.044c0.406-0.202,0.475-0.784,0.484-0.958
		c0.027-0.429-0.099-0.768-0.344-0.931l-1.406-0.209C565.735,35.602,565.61,35.326,565.61,30.003L565.61,30.003z M557.465,142.228
		c-5.104-0.596-6.644-2.374-10.087-12.578l-16.256-47.698c-1.777-5.219-3.676-10.678-5.221-15.899
		c-0.237-0.829-1.066-1.066-1.777-1.066c-1.308,1.542-3.322,3.677-6.172,4.51c0.358,1.898-0.354,4.15-2.017,8.42l-12.101,32.038
		c-4.984,13.29-8.308,21.003-10.444,26.46c-1.659,4.271-4.27,5.578-7.117,5.814l-3.916,0.355c-0.711,0.592-0.474,2.492,0.24,2.967
		c3.202-0.119,7.472-0.355,11.387-0.355c5.577,0.118,9.259,0.118,12.343,0.355c1.066-0.475,1.066-2.375,0.236-2.967l-3.916-0.355
		c-2.849-0.236-3.442-0.949-3.442-2.374c0-1.305,0.832-4.508,2.611-9.849l4.152-12.457c0.832-2.493,1.542-2.849,4.509-2.849h17.916
		c3.559,0,4.035,0.355,4.867,2.965l5.219,16.138c0.951,2.849,1.543,4.982,1.543,6.288c0,1.188-1.661,1.901-4.149,2.138l-3.444,0.355
		c-0.832,0.592-0.713,2.492,0.238,2.967c3.44-0.119,7.947-0.355,13.644-0.355c5.339,0,9.493,0.118,14.357,0.355
		c0.592-0.475,0.828-2.375,0-2.967L557.465,142.228L557.465,142.228z M526.853,109.954h-14.594c-3.323,0-3.44-0.119-2.493-2.847
		l7.477-20.646c1.305-3.559,2.489-6.408,2.846-7.003h0.238c0.713,1.425,1.779,4.631,2.727,7.477l6.409,19.34
		C530.531,109.48,530.294,109.954,526.853,109.954L526.853,109.954z M531.695,11.119c0-1.908,0.715-5.11,5.505-5.11
		c4.359,0,5.688,2.836,6.358,5.307l0.073,0.142c0.158,0.193,0.425,0.3,0.748,0.3c0.373,0,0.876-0.15,1.094-0.482l0.062-0.095v-0.113
		c0-2.021-0.417-4.843-0.909-6.166l-0.093-0.247h-0.263c-0.35,0-1.008-0.086-1.638-0.28c-1.181-0.318-3.033-0.656-4.691-0.656
		c-6.26,0-10.466,3.569-10.466,8.881c0,4.516,3.451,7.466,5.509,8.823l4.698,3.069c3.414,2.196,3.884,4.471,3.884,6.602
		c0,2.64-1.794,5.303-5.802,5.303c-5.004,0-7.188-3.858-8.141-7.094l-0.048-0.105c-0.148-0.22-0.416-0.342-0.755-0.342
		c-0.328,0-0.801,0.126-1.055,0.482l-0.075,0.106l0.004,0.13c0.095,2.235,0.729,5.895,1.38,7.087l0.051,0.094l0.093,0.053
		c0.968,0.565,3.679,1.879,7.902,1.879c6.527,0,10.911-3.829,10.911-9.526c0-3.953-2.08-7.163-6.357-9.812l-3.957-2.474
		C534.216,15.942,531.695,13.956,531.695,11.119L531.695,11.119z M519.241,38.113c0.229-0.181,0.344-0.473,0.301-0.764
		c-0.041-0.27-0.208-0.487-0.447-0.581l-0.11-0.025c-1.18-0.085-2.371-0.568-3.194-1.297c-3.404-2.854-6.112-7.024-9.857-13.061
		c-0.26-0.417-0.297-0.608-0.291-0.689c1.644-0.686,6.282-3.108,6.282-8.554c0-4.141-2.344-6.232-4.306-7.255
		c-2.479-1.346-5.656-1.527-8.437-1.527c-4.526,0-8.039,0.126-11.057,0.396l-0.138,0.039c-0.287,0.144-0.478,0.462-0.509,0.852
		c-0.034,0.425,0.124,0.832,0.404,1.035l0.079,0.058l1.681,0.208c1.611,0.196,1.844,0.545,1.844,5.405v17.752
		c0,5.228-0.123,5.499-2.632,5.802l-1.384,0.165l-0.097,0.112c-0.279,0.325-0.307,0.796-0.24,1.129
		c0.067,0.334,0.23,0.579,0.46,0.692l0.087,0.043l0.097-0.004c2.198-0.09,3.996-0.147,6.164-0.147c2.043,0,3.76,0.057,5.868,0.147
		l0.099,0.005l0.087-0.044c0.363-0.181,0.454-0.655,0.477-0.851c0.049-0.437-0.065-0.816-0.308-1.016l-0.081-0.067l-1.146-0.164
		c-2.54-0.353-2.639-0.569-2.639-5.803v-6.232c0-0.706,0-0.706,1.942-0.706c1.899,0,2.544,0.456,3.199,1.416
		c0.752,1.092,1.626,2.476,2.472,3.814c0.885,1.399,1.719,2.72,2.377,3.654c3.396,4.837,5.958,6.389,10.544,6.389
		c0.954,0,1.789-0.096,2.292-0.263L519.241,38.113L519.241,38.113z M504.341,19.715c-1.413,1.07-3.34,1.207-4.86,1.207
		c-2.232,0-2.92-0.084-3.125-0.146c-0.057-0.205-0.057-0.788-0.057-1.354V7.854c0-1.111,0-1.203,2.834-1.203
		c5.559,0,7.53,3.898,7.53,7.235C506.663,16.626,505.924,18.479,504.341,19.715L504.341,19.715z M478.79,30.868l0.024-0.119
		l-0.051-0.111c-0.213-0.476-0.738-0.688-1.163-0.688c-0.244,0-0.465,0.065-0.639,0.189l-0.118,0.139
		c-1.418,2.831-2.694,4.264-3.342,4.625c-1.062,0.531-2.559,0.702-6.159,0.702c-4.12,0-5.179-0.492-5.702-1.017
		c-0.702-0.745-0.84-2.354-0.84-4.882v-6.97c0-0.957,0-0.957,1.252-0.957h2.869c1.728,0,3.018,0.04,3.714,0.236
		c0.687,0.172,1.039,0.619,1.258,1.597l0.441,1.926l0.077,0.157c0.185,0.224,0.532,0.357,0.927,0.357
		c0.453,0,0.819-0.17,0.982-0.456l0.051-0.088v-0.101c0-0.483-0.038-1.121-0.081-1.836c-0.056-0.902-0.117-1.923-0.117-2.912
		c0-1.034,0.062-2.093,0.115-3.026c0.045-0.756,0.083-1.435,0.083-1.966v-0.101l-0.05-0.087c-0.164-0.288-0.531-0.46-0.985-0.46
		c-0.394,0-0.74,0.134-0.925,0.357l-0.476,2.195c-0.224,1.13-0.502,1.298-0.933,1.441c-0.529,0.177-2.018,0.278-4.082,0.278h-2.869
		c-1.252,0-1.252,0-1.252-1.006V8.397c0-1.598,0-1.598,1.106-1.598h3.559c2.099,0,3.702,0.049,4.705,0.287
		c2.253,0.564,2.706,1.99,3.392,4.147l0.094,0.297l0.069,0.125c0.169,0.205,0.454,0.317,0.805,0.317
		c0.342,0,0.818-0.117,1.038-0.444l0.075-0.112l-0.065-0.727c-0.256-2.88-0.491-5.325-0.758-6.077l-0.115-0.324l-0.334,0.082
		c-0.55,0.135-3.616,0.135-6.58,0.135h-9.296c-1.905,0-3.536-0.041-5.815-0.146l-0.098-0.005l-0.087,0.043
		c-0.407,0.2-0.477,0.779-0.487,0.952c-0.029,0.433,0.096,0.775,0.342,0.941l0.959,0.16c2.528,0.3,2.68,0.628,2.68,5.854v17.798
		c0,5.356-0.308,5.589-2.721,5.801l-1.766,0.16l-0.098,0.096c-0.28,0.28-0.324,0.74-0.27,1.078c0.059,0.367,0.228,0.646,0.466,0.765
		l0.086,0.043l0.098-0.003c2.855-0.094,4.577-0.147,6.711-0.147h4.449c4.313,0,8.646,0.048,13.243,0.147l0.244,0.006l0.106-0.221
		C477.202,36.44,478.444,32.603,478.79,30.868L478.79,30.868z M444.875,6.244c0.267-0.27,0.312-0.74,0.268-1.06
		c-0.048-0.36-0.208-0.634-0.449-0.773l-0.099-0.056l-0.113,0.006c-1.657,0.099-3.174,0.146-4.773,0.146
		c-1.943,0-3.809-0.053-5.115-0.146l-0.115-0.008l-0.102,0.058c-0.272,0.157-0.458,0.484-0.495,0.875
		c-0.039,0.395,0.088,0.759,0.339,0.977l0.089,0.077l1.005,0.111c1.729,0.198,1.889,0.561,1.89,0.561
		c0,0.324-0.048,0.819-0.419,1.792c-0.851,2.153-3.209,7.814-4.592,11.063c-0.366,0.841-0.828,1.938-1.339,3.146
		c-0.937,2.222-2.078,4.927-3.048,7.052c-2.34-5.374-4.495-10.766-6.68-16.275c-1.448-3.55-2.279-6.132-2.433-6.775
		c0.076-0.156,0.504-0.37,1.982-0.565l0.854-0.113l0.085-0.073c0.252-0.217,0.38-0.581,0.342-0.976
		c-0.037-0.392-0.224-0.72-0.496-0.877l-0.098-0.056l-0.111,0.006c-2.199,0.104-3.929,0.146-5.965,0.146
		c-2.063,0-3.642-0.044-5.116-0.146l-0.123-0.008l-0.104,0.065c-0.287,0.179-0.476,0.512-0.506,0.891
		c-0.029,0.377,0.104,0.734,0.356,0.954l0.091,0.077l1.008,0.111c1.923,0.224,2.578,1.106,3.696,3.822l8.701,21.453
		c1.036,2.569,1.795,4.766,2.257,6.529l0.048,0.185l0.177,0.072c0.287,0.117,0.585,0.175,0.885,0.175
		c0.284,0,0.553-0.075,0.757-0.211l0.111-0.074l0.04-0.126c0.848-2.655,3.221-8.482,5.127-12.865l2.668-6.081
		c2.292-5.199,4.199-9.117,5.514-11.326c0.629-1.017,1.29-1.467,2.272-1.55l1.628-0.107L444.875,6.244L444.875,6.244z
		 M412.593,75.068c-9.019,7.002-14.952,18.275-14.952,31.447c0,15.304,7.358,26.102,16.85,32.63
		c8.663,5.812,18.865,7.948,29.546,7.948c7.593,0,16.139-1.78,18.745-2.731c1.307-0.472,2.73-0.947,4.154-1.185
		c1.779-2.254,4.864-10.085,5.695-16.257c-0.473-0.829-2.255-1.065-3.084-0.474c-2.73,7.001-9.494,16.968-24.8,16.968
		c-19.458,0-35.241-13.765-35.241-38.682c0-24.56,15.427-36.07,33.581-36.07c17.206,0,22.544,9.255,24.323,17.325
		c0.828,0.71,2.61,0.592,3.202-0.237c-0.947-7.237-1.54-14.713-1.66-17.442c-1.069,0.118-1.897-0.119-3.321-0.476
		c-5.578-1.542-14.596-2.847-21.003-2.847C432.289,64.986,421.255,68.308,412.593,75.068L412.593,75.068z M397.422,30.003v-17.6
		c0-5.349,0.176-5.738,2.668-5.95l1.334-0.106l0.082-0.055c0.247-0.165,0.373-0.508,0.345-0.941
		c-0.011-0.173-0.08-0.752-0.488-0.952l-0.086-0.042l-0.096,0.004c-2.336,0.092-4.085,0.146-6.115,0.146
		c-2.124,0-3.822-0.051-6.213-0.146l-0.096-0.004l-0.087,0.042c-0.408,0.201-0.477,0.782-0.488,0.955
		c-0.027,0.432,0.099,0.774,0.347,0.938l0.082,0.055l1.331,0.105c2.495,0.212,2.67,0.602,2.67,5.951v17.6
		c0,5.322-0.127,5.599-2.683,5.903l-1.365,0.163l-0.093,0.092c-0.283,0.282-0.325,0.744-0.271,1.083
		c0.06,0.365,0.23,0.643,0.469,0.76l0.087,0.043l0.097-0.004c2.512-0.097,4.162-0.147,6.213-0.147c1.956,0,3.658,0.052,6.115,0.147
		l0.096,0.004l0.087-0.043c0.409-0.202,0.478-0.783,0.488-0.956c0.027-0.43-0.1-0.771-0.347-0.934l-1.399-0.208
		C397.548,35.602,397.422,35.325,397.422,30.003L397.422,30.003z M372.607,127.16v-42.24c0-12.577,0.236-14.595,7.237-15.188
		l2.966-0.235c0.712-0.478,0.474-2.611-0.237-2.968c-5.933,0.238-9.966,0.356-14.713,0.356c-4.983,0-9.018-0.118-14.95-0.356
		c-0.711,0.356-0.949,2.49-0.236,2.968l2.966,0.235c7,0.594,7.237,2.611,7.237,15.188v42.24c0,12.576-0.237,14.237-7.237,15.068
		l-2.966,0.355c-0.713,0.711-0.475,2.611,0.236,2.967c5.933-0.237,9.967-0.355,14.95-0.355c4.747,0,8.78,0.118,14.713,0.355
		c0.711-0.355,0.949-2.493,0.237-2.967l-2.966-0.355C372.844,141.397,372.607,139.736,372.607,127.16L372.607,127.16z
		 M378.726,6.244c0.237-0.239,0.357-0.626,0.313-1.011c-0.041-0.352-0.216-0.649-0.479-0.814l-0.103-0.064l-0.122,0.007
		c-1.622,0.094-2.911,0.146-5.07,0.146c-1.744,0-3.376-0.041-5.816-0.146l-0.077-0.004L367.3,4.384
		c-0.287,0.106-0.489,0.376-0.557,0.742c-0.08,0.442,0.054,0.889,0.342,1.138l0.087,0.076l0.954,0.111
		c1.697,0.213,2.56,0.466,2.79,0.816c0.591,0.934,0.931,4.589,0.931,10.029v10.581c0,0.479,0,1.032-0.031,1.412
		c-1.714-1.771-3.508-3.779-5.737-6.275l-6.877-7.716c-4.891-5.486-7.691-9.085-8.324-10.696l-0.11-0.282l-0.3,0.046
		c-0.594,0.09-1.402,0.142-2.219,0.142c-0.865,0-3.496,0-5.557-0.146l-0.105-0.007l-0.093,0.047c-0.262,0.132-0.444,0.404-0.5,0.746
		c-0.067,0.412,0.051,0.843,0.301,1.096l0.094,0.096l0.97,0.112c1.319,0.164,2.301,0.537,2.831,1.068
		c0.924,1.009,0.99,1.92,0.99,3.301v14.738c0.003,2.39,0.01,7.987-0.609,9.58c-0.116,0.253-0.535,0.591-1.871,0.769l-1.467,0.162
		l-0.094,0.094c-0.22,0.219-0.333,0.571-0.302,0.943c0.031,0.372,0.194,0.688,0.448,0.869l0.108,0.077l0.133-0.008
		c1.719-0.095,3.045-0.147,5.122-0.147c1.674,0,3.346,0.043,5.769,0.147l0.13,0.006l0.106-0.076
		c0.231-0.166,0.388-0.429,0.437-0.741c0.057-0.362-0.035-0.737-0.253-1.028l-0.101-0.135l-1.708-0.164
		c-1.186-0.097-2.014-0.375-2.222-0.751c-0.532-0.939-0.838-4.601-0.838-10.046V14.33c0-0.884,0.016-1.827,0.104-2.499
		c0.786,0.879,2.095,2.426,3.271,3.818c0.808,0.955,1.556,1.839,2.039,2.395l11.471,13.049c3.811,4.337,5.637,6.49,6.303,7.433
		l0.114,0.161h0.196c0.649,0,1.135-0.301,1.3-0.805l0.026-0.079l-0.01-0.083c-0.066-0.576-0.146-2.537-0.146-8.606l-0.002-12.487
		c-0.009-2.533-0.025-7.803,0.702-9.345c0.062-0.125,0.655-0.546,2.483-0.833l0.818-0.115L378.726,6.244L378.726,6.244z
		 M334.403,6.17c0.219-0.265,0.323-0.673,0.263-1.04c-0.05-0.309-0.211-0.561-0.454-0.713l-0.102-0.063l-0.12,0.006
		c-1.718,0.094-3.051,0.146-5.17,0.146c-1.896,0-3.732-0.047-5.615-0.146l-0.126-0.006l-0.105,0.07
		c-0.229,0.152-0.386,0.434-0.433,0.77c-0.051,0.371,0.041,0.727,0.255,0.979l0.102,0.121l1.394,0.106
		c1.135,0.093,1.907,0.396,2.171,0.85c0.575,1.015,0.893,4.583,0.893,10.045v5.688c0,5.826-1.649,12.77-9.509,12.77
		c-6.59,0-9.659-4.074-9.659-12.821V12.254c0-5.257,0.172-5.64,2.617-5.854l1.286-0.102l0.082-0.056
		c0.246-0.165,0.372-0.498,0.344-0.914c-0.023-0.345-0.162-0.771-0.485-0.93l-0.087-0.042l-0.096,0.004
		c-2.344,0.094-4.005,0.146-6.065,0.146c-2.03,0-3.779-0.053-6.114-0.146l-0.096-0.004l-0.087,0.042
		c-0.324,0.159-0.464,0.582-0.488,0.925c-0.028,0.418,0.096,0.753,0.342,0.919l0.083,0.056l1.334,0.102
		c2.447,0.213,2.618,0.596,2.618,5.854v11.667c0,5.979,1.23,9.668,3.987,11.959c2.178,1.863,5.372,2.807,9.494,2.807
		c3.895,0,7.62-1.431,9.72-3.731c2.397-2.568,3.562-6.517,3.562-12.072v-5.588c0-2.506,0-8.376,0.659-9.928
		c0.229-0.499,1.076-0.878,2.155-0.967l1.347-0.107L334.403,6.17L334.403,6.17z M277.569,69.496
		c0.711-0.478,0.474-2.611-0.238-2.968c-5.103,0.238-9.136,0.356-13.763,0.356c-5.103,0-9.137-0.236-14.952-0.356
		c-0.712,0.356-0.949,2.49-0.237,2.968l3.084,0.235c6.172,0.474,7.002,2.494,7.002,14.95v42.715c0,12.458-0.238,13.645-6.883,14.832
		l-2.016,0.355c-0.712,0.711-0.475,2.611,0.236,2.967c4.628-0.117,8.663-0.355,13.765-0.355c4.626,0,8.66,0.118,15.068,0.355
		c0.712-0.355,0.949-2.493,0.237-2.967l-3.44-0.355c-6.645-0.712-7.239-2.374-7.239-14.832v-16.73c0-3.559,0.237-3.797,5.933-3.797
		h33.934c5.696,0,5.934,0.238,5.934,3.797v16.73c0,12.458,0,13.645-7.239,14.832l-2.254,0.355c-0.711,0.711-0.475,2.611,0.237,2.967
		c5.221-0.237,9.494-0.355,14.356-0.355c4.629,0,8.663,0.118,14.358,0.355c0.711-0.355,0.948-2.493,0.238-2.967l-2.849-0.355
		c-6.882-0.831-7.118-2.374-7.118-14.832V84.681c0-12.456,0.236-14.238,7.118-14.95l2.493-0.235
		c0.712-0.478,0.474-2.611-0.238-2.968c-5.339,0.238-9.373,0.356-14.001,0.356c-4.863,0-8.899-0.118-14.356-0.356
		c-0.711,0.356-0.948,2.49-0.237,2.968l2.254,0.235c7.001,0.712,7.239,2.494,7.239,14.95v13.646c0,3.679-0.238,3.797-5.934,3.797
		h-33.934c-5.696,0-5.933-0.118-5.933-3.797V84.681c0-12.456,0.237-14.238,7.12-14.95L277.569,69.496L277.569,69.496z
		 M272.784,30.868l0.024-0.119l-0.05-0.111c-0.213-0.476-0.738-0.688-1.164-0.688c-0.244,0-0.465,0.065-0.639,0.189l-0.119,0.139
		c-1.418,2.832-2.694,4.265-3.34,4.625c-1.064,0.531-2.561,0.702-6.16,0.702c-4.118,0-5.179-0.493-5.704-1.016
		c-0.7-0.746-0.837-2.355-0.837-4.882v-6.97c0-0.957,0-0.957,1.252-0.957h2.869c1.726,0,3.016,0.04,3.712,0.236
		c0.688,0.172,1.04,0.619,1.256,1.598l0.444,1.925l0.078,0.157c0.185,0.224,0.53,0.357,0.926,0.357c0.451,0,0.819-0.17,0.982-0.456
		l0.051-0.087v-0.102c0-0.483-0.039-1.121-0.082-1.836c-0.055-0.902-0.116-1.923-0.116-2.912c0-1.034,0.061-2.093,0.115-3.026
		c0.044-0.756,0.083-1.435,0.083-1.966v-0.101l-0.05-0.087c-0.164-0.288-0.532-0.46-0.985-0.46c-0.394,0-0.74,0.134-0.924,0.357
		l-0.476,2.195c-0.224,1.13-0.502,1.298-0.934,1.441c-0.527,0.177-2.015,0.278-4.08,0.278h-2.869c-1.252,0-1.252,0-1.252-1.006
		V8.397c0-1.598,0-1.598,1.103-1.598h3.561c2.099,0,3.703,0.049,4.704,0.287c2.255,0.564,2.708,1.99,3.394,4.147l0.095,0.296
		l0.068,0.125c0.168,0.205,0.454,0.317,0.804,0.317c0.341,0,0.818-0.117,1.038-0.444l0.075-0.112l-0.065-0.731
		c-0.257-2.878-0.491-5.322-0.757-6.073L268.7,4.289l-0.335,0.082c-0.549,0.135-3.616,0.135-6.583,0.135h-9.295
		c-1.904,0-3.534-0.041-5.813-0.146l-0.098-0.005l-0.087,0.043c-0.407,0.2-0.476,0.779-0.487,0.952
		c-0.029,0.433,0.096,0.775,0.342,0.941l0.959,0.16c2.531,0.3,2.681,0.628,2.681,5.854v17.798c0,5.356-0.308,5.589-2.721,5.801
		l-1.766,0.16l-0.097,0.096c-0.283,0.282-0.325,0.743-0.271,1.081c0.059,0.366,0.229,0.644,0.467,0.761l0.085,0.043l0.096-0.003
		c2.857-0.094,4.578-0.147,6.71-0.147h4.451c4.312,0,8.643,0.048,13.242,0.147l0.245,0.006l0.105-0.221
		C271.193,36.448,272.437,32.61,272.784,30.868L272.784,30.868z M231.463,30.104V12.306c0-5.267,0.147-5.595,2.622-5.854
		l1.035-0.098l0.174-0.062c0.247-0.164,0.374-0.504,0.347-0.935c-0.011-0.173-0.078-0.756-0.484-0.958l-0.088-0.044l-0.098,0.005
		c-2.39,0.104-4.021,0.146-5.82,0.146c-2.142,0-3.87-0.056-5.963-0.146l-0.096-0.005l-0.088,0.043
		c-0.406,0.2-0.476,0.78-0.487,0.953c-0.028,0.432,0.097,0.774,0.344,0.939l1.112,0.16c2.525,0.26,2.675,0.588,2.675,5.854v5.683
		c0,1.203,0,1.203-2.091,1.203h-14.14c-2.092,0-2.092,0-2.092-1.203v-5.683c0-5.267,0.147-5.594,2.626-5.854l0.938-0.098
		l0.171-0.062c0.248-0.165,0.374-0.507,0.345-0.939c-0.011-0.174-0.08-0.753-0.487-0.954l-0.087-0.043l-0.098,0.005
		c-2.25,0.104-3.907,0.146-5.718,0.146c-1.291,0-2.417-0.036-3.646-0.075c-0.792-0.025-1.626-0.052-2.573-0.071l-0.093-0.002
		l-0.083,0.041c-0.406,0.199-0.477,0.776-0.488,0.949c-0.029,0.434,0.095,0.777,0.342,0.943l0.083,0.056l1.385,0.106
		c2.179,0.167,2.566,0.616,2.566,5.853v17.798c0,5.146-0.095,5.364-2.553,5.805L200,36.077l-0.084,0.084
		c-0.283,0.282-0.326,0.743-0.271,1.082c0.059,0.365,0.229,0.643,0.467,0.761l0.084,0.042l0.095-0.002
		c0.68-0.016,1.329-0.04,1.977-0.063c1.168-0.041,2.377-0.084,3.749-0.084c1.857,0,3.435,0.046,6.268,0.147l0.097,0.004l0.087-0.044
		c0.323-0.162,0.461-0.603,0.483-0.961c0.025-0.428-0.102-0.767-0.349-0.929L211,35.906c-2.372-0.256-2.675-0.493-2.675-5.802V23.13
		c0-1.2,0-1.2,2.092-1.2h14.14c2.091,0,2.091,0,2.091,1.2v6.974c0,5.259-0.05,5.367-2.695,5.804l-1.062,0.167l-0.088,0.088
		c-0.282,0.283-0.324,0.745-0.268,1.083c0.06,0.364,0.231,0.641,0.468,0.758l0.088,0.044l0.098-0.005
		c2.367-0.104,4.094-0.147,5.962-0.147c1.949,0,3.665,0.054,5.968,0.147l0.097,0.004l0.086-0.043
		c0.409-0.201,0.477-0.781,0.488-0.954c0.028-0.431-0.097-0.772-0.345-0.936l-1.351-0.208
		C231.586,35.603,231.463,35.332,231.463,30.104L231.463,30.104z M190.813,3.75l0.038-0.141l-0.066-0.13
		c-0.19-0.375-0.742-0.404-0.906-0.404c-0.124,0-0.305,0.014-0.464,0.078l-0.123,0.049l-0.066,0.114
		c-0.637,1.102-0.9,1.191-3.527,1.191h-20.438c-2.213,0-3.205-0.115-3.414-1.222l-0.022-0.115l-0.084-0.083
		c-0.137-0.137-0.36-0.203-0.682-0.203c-0.118,0-0.52,0.011-0.737,0.157l-0.134,0.09l-0.028,0.159
		c-0.347,1.968-1.077,5.094-1.863,7.306l-0.054,0.153l0.072,0.145c0.296,0.595,1.312,0.884,1.854,0.479l0.079-0.06l0.04-0.091
		c0.502-1.142,0.976-2.22,2.133-3.285c1.088-1,3.556-1.136,5.826-1.136h2.717c1.104,0,1.104,0,1.104,1.2v22.104
		c0,5.356-0.308,5.589-2.717,5.801l-1.779,0.147l-0.168,0.055c-0.294,0.181-0.458,0.55-0.44,0.987
		c0.014,0.333,0.146,0.748,0.469,0.91l0.086,0.043l0.096-0.003c3.028-0.092,4.855-0.147,6.859-0.147
		c1.931,0,3.527,0.047,6.466,0.147l0.096,0.003l0.086-0.043c0.324-0.162,0.462-0.603,0.484-0.96
		c0.026-0.427-0.101-0.767-0.347-0.929l-1.758-0.208c-2.473-0.214-2.62-0.539-2.62-5.801V7.948c0-0.506-0.001-0.983,0.08-1.064
		c0.084-0.084,0.62-0.084,0.975-0.084h3.508c2.649,0,4.451,0.38,5.511,1.163c0.469,0.343,0.874,1.595,1.084,3.348l0.013,0.111
		l0.071,0.086c0.181,0.22,0.517,0.352,0.896,0.352c0.469,0,0.861-0.202,1.021-0.526l0.048-0.097l-0.011-0.108
		C189.939,9.703,190.282,5.721,190.813,3.75L190.813,3.75z M157.137,106.515c0,15.304,7.356,26.102,16.849,32.63
		c8.661,5.812,18.866,7.948,29.544,7.948c7.595,0,16.137-1.78,18.747-2.731c1.306-0.472,2.73-0.947,4.152-1.185
		c1.78-2.254,4.866-10.085,5.696-16.257c-0.476-0.829-2.254-1.065-3.084-0.474c-2.729,7.001-9.493,16.968-24.798,16.968
		c-19.459,0-35.24-13.765-35.24-38.682c0-24.56,15.425-36.07,33.579-36.07c17.204,0,22.545,9.255,24.324,17.325
		c0.83,0.71,2.611,0.592,3.203-0.237c-0.949-7.237-1.542-14.713-1.661-17.442c-1.068,0.118-1.898-0.119-3.321-0.476
		c-5.578-1.542-14.595-2.847-21.003-2.847c-12.339,0-23.374,3.322-32.036,10.082C163.069,82.07,157.137,93.343,157.137,106.515
		L157.137,106.515z M126.282,86.494l-0.004-82.648c-66.395-6.402-116.508,0-116.508,0s-0.001,82.642,0,82.662
		c5.291,56.024,57.763,62.606,58.262,62.515C77.403,147.333,121.396,138.487,126.282,86.494L126.282,86.494z M28.477,107.124
		c1.061,0.719,2.31,1.037,3.455,1.525c1.418,3.709,0.034,7.355-0.762,5.843C29.773,111.838,29.223,109.638,28.477,107.124
		L28.477,107.124z M28.542,66.5l-0.087-0.086c-0.104,0-7.375,4.588-12.1,2.386c3.52-1.948,15.71-9.693,19.045-11.89
		c1.574,0.338,2.21-0.229,2.712-0.58c-1.274,0.08-5.498,0.739-3.363-3.041c0.821,3.389,6.744,0.271,8.869-0.219
		c5.925-1.363,5.883,4.97,5.377,7.587c-0.188,0.976,1.816,1.668,2.802,1.529c-1.698,4.183-4.597,0.239-4.942,1.835
		c-0.141,0.646-2.082,1.152-2.073,2.762c0.012,2.195,0.87,0.995,0.949,2.699c0.087,1.649-0.704,0.365-0.524,2.149
		c0.284,2.832,4.97-0.377,6.906,0.388c0.969,0.385,1.61,1.25,2.555,1.081c0.275-0.227,0.151-1.298,0.108-1.68
		c-0.099-0.899-1.763-1.005-2.537-2.233c-0.675-1.07,0.765-4.295,1.544-5.242c1.118,5.32,6.104,3.654,6.848,9.248
		c0.47,1.581-1.713,3.34,0.057,5.915c-1.314,1.276-2.895,7.331-0.143,10.177c-0.467,1.289-1.08,4.26,1.37,5.997
		c-0.823,1.755-0.635,3.9,0.06,6.084c-1.526,0.006-1.222-8.557-10.365-8.831c-0.205-0.062-0.254,0.972,0.009,1.435
		c1.096,1.925,2.567,1.814,2.251,6.343c-0.107,1.549-1.016-0.27-1.501-0.699c-1.107-0.979-1.963-1.107-2.445-4.295
		c-3.715,2.914-3.35,6.44-3.118,8.231c0.002,0.004-0.82-2.234-1.758-4.53c-0.049-0.122,3.773-4.721,4.382-5.814
		c7.714-13.887-4.981,4.488-5.008,4.426c-0.683-1.584-1.281-2.948-1.683-3.378c0.099-0.192,2.217-2.555,3.174-4.548
		c5.967-12.424-3.546,4.137-3.885,3.833c-0.72-0.647-1.313-1.457-1.769-1.166c-0.107,1.907-0.562,1.648-0.431,3.597
		c-0.995,1.327-3.128,3.414-4.62,4.447c0,0-0.372-3.449-0.272-3.57c0.749-0.913,3.684-4.06,4.283-4.999
		c9.776-15.357-4.577,3.699-4.604,3.536c-0.101-0.608-0.888-1.611-1.726-2.465c0,0,3.17-4.32,3.951-5.927
		c5.949-12.23-4.782,5.421-4.901,5.357c-0.257-0.135-0.284-0.133-0.583-0.233c-0.298-0.101,0.329-3.522,0.743-5.583
		c0.805-4.076-1.355-0.791-1.943,5.666c-0.551,0.086-1.891,0.227-2.397,0.688c0.328,1.723,0.736,0.397,1.458,2.054
		c0.865,1.984-1.205,5.234,0.596,7.618c0.696,0.918,0.736,0.765,0.599,1.365c-1.107-0.078-1.781-0.101-2.48,0.858
		c-1.361-6.188-1.319-9.166-1-15.453c0.142-2.858,1.08-7.182,0.652-7.264c-0.408-0.078-6.886,16.606-8.45,19.877
		c-2.731-0.923,1.701-15.361,7.333-22.312c0.531-2.212-2.953,2.24-5.034,4.016c-1.908,1.626-4.323,3.747-6.954,3.019
		c3.379-3.574,11.126-10.258,11.987-11.93c0.722-1.433-5.285,4.458-11.632,2.269C18.943,74.802,28.525,69.91,28.542,66.5
		L28.542,66.5z M39.969,97.879c0.024,1.521-0.083,2.647,0.359,4.194c0.719,2.332,0.358,1.613-0.621,0.812
		c-0.779-0.868-1.507-1.581-1.881-2.591C37.733,99.577,38.311,99.537,39.969,97.879L39.969,97.879z M55.308,60.284
		c-0.925-1.579,1.104-3.085,1.104-3.085c-0.062,4.439,5.613,1.393,8.576,2.802c0.712,0.329,1.212,0.954,1.505,1.612
		C63.308,59.413,57.419,63.888,55.308,60.284L55.308,60.284z M21.927,24.818c-5.065,0-4.959-7.595,0-7.595
		C26.911,17.223,26.911,24.818,21.927,24.818L21.927,24.818z M21.927,39.987c-5.181,0-5.181-7.591,0-7.591
		C26.911,32.396,26.942,39.987,21.927,39.987L21.927,39.987z M31.539,23.6h-4.415v-4.344h4.415V23.6L31.539,23.6z M31.539,38.732
		h-4.415v-4.344h4.415V38.732L31.539,38.732z M67.215,46.215c0,0-4.621-2.507-10.046-2.868c-5.246-0.348-15.843,3.842-23.979,3.289
		V10.881c0,0,9.277,1.233,13.089-0.237c12.959-4.999,20.936,0.585,20.936,0.585V46.215L67.215,46.215z M76.168,52.018
		c0.227,1.351-1.025,1.689-1.022,1.689c1.945,0.452,2.875-0.704,3.255-1.436c0.748,3.108-2.385,3.283-3.361,3.47
		c-0.002-0.002,1.587,0.454,1.669,1.491c0.208,2.627,1.898,2.404,2.262,2.196c-0.06,0.316-0.582,1.902-2.482,0.472
		c-0.322,0.318,0.519,0.807,0.685,2.113c0.214,1.649,0.162,3.179,2.066,4.185c-1.168,0.929-2.543-1.489-2.663-1.202
		c-0.136,0.325,1.622,1.212-0.312,5.775c-0.883-0.508-0.391-0.411-1.414-1.629c-0.783-0.654-1.091-0.803-0.438,0.278
		c1.142,1.426,1.411,4.687,1.017,5.567c-0.941-0.411-0.699-1.162-1.809-2.184c-0.102,0.436,0.34,2.596,1.487,3.631
		c1.982,1.79,2.684,3.95,2.72,4.376c0.157,1.625-0.354,3.767-0.547,5.862c-0.951-0.137-1.758-2.836-1.989-2.684
		c-0.281,0.183,0.12,2.642,1.912,4.315c0.868,2.538,0.52,3.899,0.288,3.991c-0.305,0.131-1.271-2.595-1.797-2.119
		c2.552,6.491,0.766,8.751,0.091,10.752c-0.527-2.05-0.794-3.583-1.455-5.905c-1.391,1.092-1.725,2.71-3.426,4.191
		c0-2.647-1.53-9.04-2.744-10.529c-0.056-0.068-2.193,5.73-3.167,8.309c-1.264,3.344-1.459,7.522,0,10.778
		c-3.15-4.483-3.489-12.823-0.77-13.949c0.235-0.596-0.164-2.559-0.77-2.317c-0.174,0.961-0.058,1.782-0.853,2.721
		c-2.086-0.613-1.136-3.158-0.948-4.002c2.706-3.245,1.014-3.996,0.888-3.911c-0.293,0.744-0.549,1.655-1.375,1.991
		c-1.737-2.984-0.624-7.665,2.674-11.165c0.139-1.307-1.476,0.975-2.527,0.895c-0.274-2.519,0.639-6.888,5.295-7.045
		c-0.889-0.261-1.365-0.423-1.58-1.164c1.408-0.21,5.822-0.546,5.093-4.031c-0.418,0.421-0.552,1.047-1.703,1.746
		c-0.773,0.47-1.616,0.512-2.054-0.169c2.047-0.679,1.372-3.169-1.302-2.437c-0.819,0.223-2.017-0.632-2.076-1.581
		c0.595,0.594,1.802,0.154,2.498-0.298c3.008-1.956,4.845,0.877,5.25,1.483c0.122,0,1.35-2.828-2.921-3.591
		c-0.356-0.993-1.333-2.753-4.232-2.53c-0.955-3.371-3.845-1.71-3.75-0.183c-3.071-2.261,0.053-5.115,1.293-5.556
		c0.86,0.07,0.67,2.792,2.18,2.337c0.365-0.11-1.173-1.878-0.584-2.679c1.385-0.792,1.354,1.014,2.037,0.342
		c0.339-1.183,1.698-1.844,2.817-1.97C70.717,50.266,73.158,53.708,76.168,52.018L76.168,52.018z M104.415,46.763
		c-6.817,0.465-20.961-3.416-24.558-3.416c-7.419,0-11.007,2.896-11.007,2.896s0.01-33.677,0-34.889c0,0,9.748-4.572,16.841-1.955
		c8.686,3.207,18.724,1.787,18.724,1.787V46.763L104.415,46.763z M113.391,33.004c3.758-0.549,4.324,3.885,4.324,3.885h-0.007
		c-0.925-0.735-2.785-1.068-4.045-0.256c-4.198,2.703-7.98,2.733-7.98,2.733v-6.772C105.683,32.594,106.48,34.013,113.391,33.004
		L113.391,33.004z M117.839,23.731c-0.028-0.2-0.07-0.508-0.131-0.942c-0.095-0.678-2.039-1.069-3.412-0.469
		c-1.922,0.839-6.735,3.587-8.492,3.068v-6.772c4.333,1.879,6.025,0.182,7.418,0.182c4.278,0,4.493,3.991,4.493,3.991
		C117.771,23.224,117.812,23.531,117.839,23.731L117.839,23.731z M112.998,93.925c-1.267,0.331-4.605,1.664-5.411,2.975
		c0.428-7.218-1.904-14.307-2.646-16.021c-1.447-3.335,0.646,7.762,0.79,10.32c0.004,0.112-11.979-15.401-4.744-3.452
		c1.874,3.097,4.803,5.116,4.805,5.17c0.05,2.152-0.095,3.739-0.504,4.894c-0.737,0.59-16.316-20.73-7.705-5.965
		c1.067,1.83,7.314,7.37,7.263,7.482c-0.396,0.843-1.097,2.068-2.065,2.97c-0.165-0.164-3.594-2.691-3.618-2.846
		c-0.26-1.649-0.27-3.205-2.306-2.039c0,0-7.675-8.934-4.121-2.672c1.554,2.736,2.573,3.041,2.987,3.527
		c0,0-1.191,1.615-1.574,3.329c-0.154,0.687-6.655-7.209-4.104-2.248c0.817,1.588,3.79,3.322,3.758,3.435
		c-0.304,1.033-0.613,2.033-0.938,2.685c-0.41,0.823-6.117,5.373-6.109,5.369c0-0.002,1.116-3.604,3.542-5.369
		c1.385-1.015,1.389-0.792,2.307-1.368c-0.02-0.532-0.532-1.403-1.197-1.632c-0.833-0.295-3.535,0.196-3.535,0.196
		c0.253-1.351-0.929-4.265-0.914-7.47c-1.017,0.101-2.802,1.674-3.234,2.565c-0.312,5.311-1.466,3.719-2.545,7.54
		c-1.173-1.602,0.082-3.903-1.068-5.401c-1.583-2.062-1.823-3.452-2.056-5.99c0.37-0.205,1.985-1.989,0.515-5.734
		c-0.24-5.881,2.389-8.129-2.312-12.247c0.396-0.126,0.679-3.074,0.679-3.078c3.463,1.848,2.776-2.138,4.125-2.921
		c2.142-1.242,1.753-2.532,0.792-4.136c6.125,1.741-0.276,5.929,2.496,6.019c2.011,0.062,3.358-0.447,4.231-1.8
		c0.931-1.428-0.16-2.305,2.438-4.621c0.26-0.232,0.948-1.779-1.111-2.205c-0.452-0.093,0.003-1.856,0.003-1.856
		c-1.65,1.396-2.168,3.363-4.821,2.119c-1.357-0.638-2.238-0.01-2.794,0.259c0,0-0.282-1.109,0.841-1.485
		c2.902-0.975,3.619-2.133,3.46-2.766c-0.392-1.509-0.51,0-0.425-1.591c0.036-0.629,0.77-1.487,1.378-2.222
		c1.969-2.376,3.362-1.484,3.865-1.273c1.144-0.886,1.346-0.823,2.411-1.244c1.822-0.717,5.772,0.475,7.979,1.498
		c1.07,0.484,2.349,0.774,3.598,0.502c-0.012,0.642-0.463,0.988-0.912,1.119c-0.689,0.213-1.51,0-1.457,0.504
		c0.031,0.295,0.975,0.347,1.565,0.506c3.271,0.893,7.506,3.823,4.725,3.207c-0.328-0.074,2.005,1.744,3.767,4.106l6.238,6.06
		c-0.288,0.343-2.474,0.033-9.401-6.459c-0.985,0.879,8.425,7.972,12.31,15.5c-0.335,0.234-5.177-1.529-6.923-3.33
		c-2.689-2.781-5.78-9.855-7.051-8.822c-0.153,0.061,5.114,8.261,7.716,13.124c1.313,2.462,2.395,5.988,2.483,8.644
		c0.417,13.101-1.555,12.093-1.554,12.095c-3.069-10.324-4.505-22.314-8.982-27.846C106.141,71.325,112.715,83.211,112.998,93.925
		L112.998,93.925z M99.428,105.705c-1.385,1.216-2.289,1.647-1.987,1.042c0.337-0.673,0.586-1.241,0.774-1.744
		C98.279,104.833,99.428,105.705,99.428,105.705L99.428,105.705z M98.519,104.079c0.307-1.102,0.308-1.86,0.45-2.83
		c0.063-0.419,0.073-0.369,0.092-0.72c0.006-0.113,3.001,2.494,3.169,2.599c-0.752,0.941-1.395,1.278-2.111,1.947
		C99.611,104.637,98.49,104.185,98.519,104.079L98.519,104.079z M108.242,107.411c-4.159,4.108-10.395,2.619-15.31,4.82
		c-4.454,1.622-7.679,5.742-12.35,6.782c-1.373,0.443-1.6,1.13-0.724,1.105c0.513-0.014,3.359,2.957,7.914,0.667
		c1.52-0.767,6.245-3.396,7.043-3.549c-2.557,2.435-3.84,4.612-6.126,5.898c-1.399,0.783-7.096,2.824-12.779,1.72
		c-2.517-0.489-4.456,1.833-3.814,1.78c1.348-0.361,2.859-0.178,3.767,1.012c1.65,1.293,4.039,2.904,6.095,0.504
		c0.683-0.797,3.945-2.49,7.011,0.62c-3.261-0.17-2.938,5.696-9.117,5.008c-2.288-0.017-7.342-5.248-8.781-3.631
		c-2.554,2.87,5.489,5.594,2.005,9.204c-3.145,3.258-6.903-2.599-6.903-2.599c1.963,0.824,5.584,1.354,3.989-1.835
		c-0.633-1.267-1.836-2.406-1.836-4.75c-0.276-1.166-7.475,9.27-12.236,4.556c-1.871-1.853-5.66-5.915-9.093-7.464
		c9.09-0.771,10.475,2.867,10.909,3.45c2.907,3.923,5.594-0.061,6.213-0.761c0.947-1.078,2.287-2.56,1.812-2.786
		c-3.525-1.672-7.554-2.025-10.562-0.645c6.442-8.856,11.454-0.563,11.453-0.565c0.706,0.439-0.181-5.251-6.552-5.565
		c-3.979-0.195-7.481,3.386-10.225,3.382c-2.231-0.004-8.996-4.572-10.586-8.629c3.936,2.944,8.957,4.633,12.085,2.768
		c5.883-3.506,13.292,1.782,13.645,1.15c-1.645-1.288-5.387-6.304-15.488-3.444c-3.919,2.25-5.571-1.67-7.978-1.735
		c4.094-3.633,6.932-1.786,8.362-1.674c0.34,0-1.708-1.685-3.143-1.835c-11.163-1.162-18.233-4.23-18.233-4.23
		c-0.058,0,0.93-2.25,5.728-0.628c0,0-4.303-2.634-4.267-6.02c0.14-2.087,1.149-4.321-0.447-6.062
		c6.479-0.265,1.877,8.77,6.426,11.098c0.097,0.036-1.34-2.158,0.685-3.86c0.939,2.653,3.252,4.024,4.879,4.454
		c0.382-0.209,0.854-1.023,0.854-1.021c-1.712-2.83-1.937-6.128-1.477-9.907l0.068-0.036c0.368,0.017,0.992,1.297,1.429,2.238
		c0.945,2.033,0.922,4.957,2.805,7.366c1.042,1.326,1.688,2.652,2.624,3.297c0.404-0.941,0.104-2.559,0.042-2.99
		c-0.212-1.533-1.175-4.221,1.449-6.597c1.227,3.544,2.896,2.517,3.122,4.216c0.312,2.377,0.208,1.999-0.034,3.826
		c0.125,2.517,2.413,3.227,4.443,4.835c4.58,2.492,7.619,3.841,9.612,7.032c0.973-5.387-13.561-6.463-11.687-16.853
		c-0.194-4.15,0.517-4.498-2.424-7.031c5.833,0.169,9.01,9.742,9.327,11.49c0.583,3.211,2.533,3.378,5.209,7.564
		c0.385,0.141-4.786-11.155,1.378-20.824c0,0,2.078,5.023,1.098,8.318c-0.591,1.983-0.043,4.179,0.067,5.423
		c0.113,1.267-0.253-4.584,4.15-7.612c0.274,2.216,2.396,5.646,0.385,9.32c-2.446,4.47-2.625,2.862-2.661,8.363
		c0.222-0.096,0.854-3.791,2.533-5.891c3.546-4.433,1.013-6.817,4.475-10.659c0.275,1.921,0.765,1.16,0.971,2.87
		c0.465,3.842-3.546,8.044-2.659,7.916c1.021-0.145,2.659-1.034,3.208-3.946c0,0,1.478,2.659,0.126,3.545
		c-2.447,1.607-2.955,3.334-2.575,5.278c1.963-2.344,4.644-4.939,4.18-8.275c0.222-2.017,2.405-2.831,2.839-7.51
		c0.073-0.776,0.848-1.718,1.623-2.13c-0.339,2.626,1.704,5.347-0.618,8.562c0.529,0.281,2.493-2.511,5.363-1.491
		c-5.761,1.037-4.08,7.279-8.494,10.169c-1.331,0.871-1.104,1.849-1.501,1.959c3.941-0.225,6.979-4.919,7.505-5.274
		c3.962-2.681,4.829-3.089,6.412-7.434c0.62-1.65,0.169-2.379,2.365-4.606c0.963,2.196-0.436,6.748-0.769,7.729
		c-0.709,2.097-3.2,3.911-2.672,3.911c10.619-4.687,10.486-7.835,13.025-11.19c0.762-1.281,4.54-3.507,5.953-3.714
		c-0.345,0.699-1.814,1.877-1.882,3.147c-0.128,2.347-0.886,3.779-2.073,5.66c0.661,0.82,1.927-1.544,3.224-0.357
		C110.338,104.379,109.574,106.289,108.242,107.411L108.242,107.411z M110.017,106.789c-0.631,3.093-1.698,5.961-3.56,8.624
		c-1.304,1.891-1.833-1.782-0.71-5.339C107.34,109.438,108.934,108.204,110.017,106.789L110.017,106.789z M101.93,28.297
		c-0.247-0.093-0.763-0.188-1.09-0.188c-0.326,0-0.5,0.464-0.094,0.572c0.258,0.072,0.74,0.156,1.202,0.179
		C102.262,28.888,102.16,28.395,101.93,28.297L101.93,28.297z M100.722,29.782c0.254,0.076,0.719,0.145,1.195,0.18
		c0.3,0.038,0.202-0.464-0.028-0.558c-0.233-0.084-0.749-0.184-1.067-0.189C100.479,29.214,100.317,29.659,100.722,29.782
		L100.722,29.782z M100.722,36.547c-0.234-0.275-0.867-0.8-1.435-1.201c-0.326,0.269-0.995,0.755-1.423,0.978
		c-0.317-0.359-0.739-0.855-1.383-1.355c-0.388,0.265-1.505,1.285-1.977,1.554c0.68,0.018,1.695,0.242,1.732,0.875
		c0.023,0.513-0.037,3.713,0,4.298c0.416,0.088,0.908,0.047,1.514,0.013c0.029-0.453,0.019-4.143,0.029-4.591
		c0.204-0.113,0.442-0.228,0.561-0.331c0.234,0.174,0.947,0.993,1.36,1.213c0.282-0.216,1.021-0.863,1.347-1.169
		C101.391,36.489,101.02,36.271,100.722,36.547L100.722,36.547z M98.855,31.17c0.388-0.702,0.96-1.838,0.922-2.702
		c-0.051-1.063-0.704-2.641-2.264-3.16c-1.977,0.703-3.199,2.263-3.253,4.108c-0.037,1.079,0.882,3.304,2.778,3.316
		C97.623,32.171,98.241,31.576,98.855,31.17L98.855,31.17z M97.655,31.59c-0.366-0.178-1.702-1.209-2.008-1.997
		c-0.4-1.064-0.4-2.24,0.731-2.929c0.883,0.326,1.914,1.194,2.005,1.993C98.511,29.691,98.212,30.919,97.655,31.59L97.655,31.59z
		 M97.605,23.367l1.421-1.554c0,0-0.631-0.496-1.006-0.956c0-0.325,0-3.437,0.138-3.604c-1.069-0.953-1.849-1.073-2.31-1.013
		c-0.865,0.13-1.751,1.24-2.032,1.612c-0.206,0.294-0.152,0.663,0,0.801c0.172,0.14,0.396,0.283,0.631,0.424
		c-0.039-0.024-0.077-0.047-0.118-0.065c-0.405,0.382-0.995,1.479-0.976,2.223c0.008,0.748,0.682,1.833,1.134,2.24
		c0.501-0.388,1.243-1.037,2.332-1.247C96.939,22.752,97.189,23.069,97.605,23.367L97.605,23.367z M96.75,19.782
		c-0.7-0.25-2.08-0.898-2.581-1.313c-0.133-0.104-0.146-0.165,0.016-0.425c0.319-0.473,0.682-0.888,0.935-0.868
		c0.218,0,1.622,0.75,1.576,1.146C96.746,18.6,96.754,19.191,96.75,19.782L96.75,19.782z M96.76,21.888
		c-0.364,0.02-0.683,0.118-1.149,0.341c-0.382-0.312-1.375-1.512-0.644-2.853c-0.101-0.061-0.206-0.113-0.304-0.175
		c0.674,0.378,1.462,0.708,2.083,0.908c-0.006,0.534-0.022,1.014-0.022,1.19C96.722,21.524,96.74,21.709,96.76,21.888L96.76,21.888z
		 M92.674,15.497c-0.336,0-2.583,0.047-2.64-0.081c-0.164-0.481-0.206-1.066,0.18-1.88c0.192-0.406-0.18-0.576-0.325-0.168
		c-0.142,0.399-1.267,1.953-2.436,2.455c-0.601,0.236,0.733,0.789,0.641,0.764c-0.006,1.497,0.208,3.742,0.528,4.642
		c0.198,0.536,0.806,1.406,1.225,1.141c0.271-0.171,0.858-1.336,1.043-1.484c0.324-0.264,0.007-0.713-0.264-0.442
		c-0.301,0.263-0.556-0.147-0.639-0.421c-0.099-0.266-0.375-3.558-0.235-3.623c0,0,2.657-0.322,2.921-0.322
		C92.855,16.078,92.865,15.497,92.674,15.497L92.674,15.497z M85.377,21.568l1.097-1.427c-0.796-0.137-1.125-0.284-1.681-0.917
		l0.022-3.54l-1.122-1.121l-0.383,0.042l-1.758,1.544c-0.182,0.269,0.291,0.269,0.526-0.051l1.276,0.732l0.056,3.425
		c0.098,0.41,0.437,0.807,0.943,1.313H85.377L85.377,21.568z M84.426,13.708l0.617-0.535v-0.86l-0.832-0.808l-0.826,0.703
		l0.02,0.992l0.512,0.508H84.426L84.426,13.708z M81.609,12.616c-0.471-0.056-2.032,0.075-2.593,0.164
		c-0.563,0.086-0.563,0.359-0.094,0.417c0.466,0.048,0.556,0.146,0.803,0.775c0.225,0.632-0.9,3.5-1.181,4.176
		c-0.329-0.493-1.522-3.117-1.522-3.472c0-0.255,0.526-0.511,0.752-0.572c0.441-0.136,0.432-0.439,0.098-0.505
		c-0.933-0.132-4.22-0.421-4.801-0.494c-0.419-0.036-0.61,0.45-0.102,0.45c0.527,0.015,1.075-0.143,1.649,0.701
		c0.664,0.954,2.747,5.431,3.244,7.314c0.245-0.396,2.324-6.422,2.444-7.061c0.149-0.624,0.587-1.233,1.199-1.414
		C82.135,12.927,82.078,12.658,81.609,12.616L81.609,12.616z M71.748,27.185c0.028,2.507,1.024,2.72,2.164,3.375
		c1.08,0.61,2.894,0.488,4.253,0.128c0.516-0.15,0.794-0.181,0.778,0.264c0,0.278,0.39,0.218,0.39,0.011
		c0-0.205,0.019-2.307,0.019-2.539c0-0.263-0.38-0.224-0.38,0c0,0.351,0,0.455-0.344,0.955c-0.937,1.384-3.277,1.329-4.531-0.364
		c-0.429-0.576-0.819-1.347-0.322-1.493c0.494-0.151,2,0.162,2.995,0.246c0.598,0.039,1.975,0.179,2.147,0.278
		c0.153,0.114,0.386,0.259,0.386-0.041c0.013-0.294,0.013-1.261,0.013-1.559c0-0.289-0.225-0.15-0.393-0.048
		c-0.171,0.119-1.639,0.364-2.227,0.468c-0.591,0.11-2.412,0.256-2.892,0.093c-0.49-0.163-0.327-1.147,0.109-1.709
		c1.27-1.679,3.833-1.562,4.76-0.165c0.318,0.486,0.318,0.601,0.318,0.965c0,0.22,0.369,0.246,0.369,0
		c0.021-0.238,0.03-2.774,0.03-2.978c0-0.198-0.372-0.27-0.372,0c0,0.186-0.408,0.293-0.81,0.186
		c-0.795-0.251-3.116,0.107-4.15,0.674C73.14,24.457,71.729,25.667,71.748,27.185L71.748,27.185z M72.191,31.633
		c0.028,0.712,0.289,6.844,0.212,7.695c-0.048,0.487,0.604,1.002,1.199,1.408c0.29-0.35,0.919-1.267,1.44-1.652
		c0.307-0.252,0.094-0.417-0.143-0.324c-0.469,0.218-0.942,0.048-0.988-0.495c-0.043-0.543-0.043-5.819,0-6.58
		C73.549,31.686,72.53,31.666,72.191,31.633L72.191,31.633z M77.249,36.645c-0.407,0.383-1.134,1.38-1.118,2.115
		c0.012,0.751,0.374,1.475,0.809,1.881c0.744-0.519,1.209-1.234,2.446-1.71c0.153,0.577,0.56,0.666,1.042,1.03
		c0.29-0.315,1.341-1.607,1.572-1.833c0.234-0.221,0.1-0.448-0.231-0.221c-0.332,0.221-0.559,0.085-1.112-0.51
		c0.02-0.323-0.037-2.959,0.091-3.106c-0.505-0.543-0.969-1.283-1.565-1.228c-0.866,0.071-1.969,1.583-2.242,1.975
		c-0.218,0.283,0.01,1.365,0.172,1.501C77.17,36.594,77.198,36.598,77.249,36.645L77.249,36.645z M77.854,37.085
		c0.484,0.27,0.728,0.103,1.479,0.021c-0.004,0.473-0.016,0.898-0.018,1.126c-0.331,0.236-0.737,0.443-1.206,0.674
		C77.737,38.601,77.193,38.34,77.854,37.085L77.854,37.085z M77.458,34.91c0.316-0.481,0.515-0.575,0.767-0.575
		c0.228,0.014,1.107,0.618,1.062,1.025c0.042,0.265,0.052,0.817,0.05,1.379c-0.659,0.08-1.123,0.155-1.861-0.468
		C77.34,36.162,77.302,35.162,77.458,34.91L77.458,34.91z M82.768,33.938c-0.561,0.279,0.749,0.798,0.661,0.774
		c-0.018,1.484-0.318,3.912,0.193,4.682c0.313,0.471,1.032,0.78,1.512,0.595c0.461-0.185,1.05-1.105,1.225-1.256
		c0.342-0.256,0.05-0.529-0.236-0.264c-0.282,0.264-1.05,0.076-1.152-0.19c-0.08-0.279-0.178-3.518-0.044-3.583
		c0,0,0.925-0.02,1.171-0.012c0.194,0,0.208-0.588,0.017-0.588c-0.336-0.006-1.082-0.072-1.125-0.206
		c-0.111-0.305,0.026-1.292,0.218-1.693c0.197-0.405-0.179-0.582-0.329-0.187C84.726,32.431,83.755,33.452,82.768,33.938
		L82.768,33.938z M83.037,27.196c0.056,1.404-0.674,2.877-1.469,3.544c1.374-0.356,1.554-1.176,2.305-2.141
		c0.415,0.614,1.187,1.356,1.751,1.677c0.396-0.263,1.52-1.524,1.766-1.785c-0.809-0.217-2.375-1.044-2.765-1.917
		c-0.308-0.648-0.234-0.955,0.072-1.465c0.273,0.359,2.176,1.234,3.032-0.226c-0.936-0.341-1.778-0.954-2.063-1.45
		c-0.251,0.208-1.087,1.12-1.558,1.408c-0.109-0.501-0.878-1.042-1.502-1.153c-0.202,0.217-1.67,1.337-2.34,1.663
		c-0.207,0.099-0.129,0.548,0.161,0.434c0.273-0.119,0.727-0.463,1.251-0.713C82.286,25.309,82.975,25.926,83.037,27.196
		L83.037,27.196z M89.613,27.423c0.169-0.85,0.766-1.199,1.04-1.455c0.387,0.43,0.777,0.917,1.36,0.917
		c0.569,0.004,1.163-0.259,1.347-0.495c-0.47-0.378-1.542-1.506-1.757-1.719c-0.542,0.301-2.898,1.524-3.098,2.937
		c-0.287,2.083,0.373,2.499,1.288,3.643c0.515,0.651,1.376,0.68,1.767,0.58c0.422-0.292,1.965-1.757,2.136-1.941
		c0.156-0.179-0.069-0.344-0.261-0.161c-0.191,0.175-0.117,0.25-0.372,0.289c-0.262,0.042-1.312,0.218-1.922-0.1
		C90.379,29.517,89.384,28.576,89.613,27.423L89.613,27.423z M88.461,34.075c-0.348,0.354-0.955,0.76-1.524,1.393
		c0.471,0.033,0.863,0.134,1.089,0.586c0.232,0.449,0.037,2.339,0.069,3.068c0.038,0.707,0.466,0.857,1.027,1.443
		c0.56-0.142,2.121-0.795,2.647-1.156c-0.047,0.581,0.687,1.232,1.121,1.36c0.291-0.317,0.606-0.49,1.034-0.888
		c-0.417-0.278-0.362-0.317-0.519-0.87c-0.122-0.533,0.03-2.554,0.044-3.42c-0.331-0.501-0.874-1.101-1.429-1.516
		c-0.392,0.357-0.921,0.835-1.541,1.488c0.462-0.062,1.371,0.123,1.414,0.511c0.027,0.501,0.104,1.596,0,2.446
		c-0.104,0.856-2.409,0.463-2.44-0.114c-0.052-0.594,0.118-2.3,0.13-3.107C89.257,34.798,89.064,34.524,88.461,34.075L88.461,34.075
		z M73.154,54.816v-0.084c-1.333-0.191-2.379-1.123-3.599-1.586c-1.687-0.638-3.476,0.664-3.476,0.871
		c0,0.455,0.479,0.688,1.844-0.171c-1.069,1.238,0.146,2.245,0.146,2.245c-0.444-0.066-1.079-0.215-1.484-0.449
		c-0.082,0.449,0.534,0.611,0.827,0.807C69.675,57.377,71.164,55.201,73.154,54.816L73.154,54.816z M69.34,55.968
		c0,0,0.601-0.65,0.599-1.115c-0.002-0.635-0.597-1.094-0.597-1.094c0.511,0.146,1.726,0.83,2.16,1.115L69.34,55.968L69.34,55.968z
		 M56.934,38.801l0.649-0.718c-0.731-0.136-0.39-0.128-0.777-0.484l-0.022-2.974l-0.951-1.395l-0.36,0.05l-1.489,1.391
		c-0.395,0.345-0.046,0.511,0.412,0.129l0.985,0.51l0.024,3.15c0.083,0.39,0.428,0.479,0.908,0.973L56.934,38.801L56.934,38.801z
		 M57.257,28.449c0.503,1.428,1.687,1.877,2.569,1.947c0.261-0.488,0.75-1.231,1.018-1.576c0.397-0.527-0.008-0.844-0.285-0.237
		c-0.214,0.467-1.359-0.043-1.774-0.442c-0.557-0.519-0.904-1.881-0.46-2.359c0.449-0.483,1.093-0.262,1.923-0.286
		c0.547-0.027,0.663-0.532,0.756-0.789c-0.264-0.124-0.659-0.348-1.177-0.661c-0.536,0.34-1.36,1.042-1.716,1.336
		C57.666,25.758,56.754,27.057,57.257,28.449L57.257,28.449z M59.407,36.312c-0.539,0.555-0.939,1.169-0.933,1.941
		c0.027,0.735,0.271,1.466,1.019,1.797c0.662-0.488,1.514-1.081,2.335-1.235c0.402,0.484,1.021,0.806,1.391,1.098
		c0.257-0.31,1.076-0.975,1.303-1.182c0.215-0.22,0-0.528-0.227-0.238c-0.174,0.266-0.752,0.073-0.917-0.198
		c0-0.313-0.3-3.617-0.167-3.77c-0.477-0.532-1.299-1.73-1.852-1.671c-0.804,0.083-2.008,1.233-2.267,1.609
		c-0.196,0.282,0.059,1.643,0.213,1.772C59.347,36.265,59.367,36.275,59.407,36.312L59.407,36.312z M61.522,36.596
		c-0.607,0.013-1.129-0.175-1.792-0.758c-0.125-0.106-0.244-0.86-0.101-1.106c0.292-0.463,0.292-0.608,0.546-0.603
		c0.197,0,1.42,0.739,1.356,1.133C61.578,35.544,61.555,36.076,61.522,36.596L61.522,36.596z M59.915,36.706
		c0.557,0.376,0.876,0.327,1.579,0.258c-0.029,0.38-0.056,0.73-0.056,0.886c0,0.168,0.069,0.302,0.117,0.444
		c-0.363,0.129-0.826,0.208-1.182,0.386C60.05,38.396,58.861,37.583,59.915,36.706L59.915,36.706z M64.497,30.579l0.665-0.716
		c-0.746-0.142-0.746-0.092-1.143-0.449l0.029-3.443l-0.651-0.96l-0.347,0.046l-1.498,1.381c-0.403,0.361-0.042,0.533,0.407,0.134
		l0.772,0.472l0.028,3.243c0.08,0.389,0.42,0.522,0.897,1.014L64.497,30.579L64.497,30.579z M63.327,18.526
		c-0.308-0.019-0.775,0.545,1.025,0.731C64.632,19.289,65.006,18.628,63.327,18.526L63.327,18.526z M63.348,17.45
		c-0.297-0.017-0.763,0.803,1.032,0.736C64.661,18.175,64.869,17.538,63.348,17.45L63.348,17.45z M63.693,22.861l-0.77-0.798
		l-0.776,0.697l0.015,0.96l0.474,0.486h0.481l0.576-0.52V22.861L63.693,22.861z M62.125,15.491c-0.523-0.359-1.093-1.23-2.356-1.287
		c-1.27-0.051-2.702,1.096-3.168,1.818c-0.619,0.954,0.14,1.791,0.947,2.411c-0.517,0.441-1.234,1.123-1.898,1.745
		c0.266,0.289,1.72,0.976,2.536,0.956c1.233-0.028,2.374-0.663,3.077-1.228c1.283-1.015,0.837-2.093-0.468-2.855
		c-0.125-0.075-0.246-0.096-0.369-0.12C61.235,16.29,61.942,15.717,62.125,15.491L62.125,15.491z M58.883,18.148
		c0.429,0.193,0.865,0.387,1.341,0.668c0.688,0.39,0.334,1.13-0.408,1.472c-0.753,0.346-2.103-0.628-2.312-1.028
		C57.78,19.021,58.3,18.609,58.883,18.148L58.883,18.148z M60.244,16.336c-0.113,0.091-0.437,0.353-0.787,0.633
		c-0.206,0.035-0.415,0.059-0.629,0.032c-0.646-0.092-0.958-0.579-1.255-0.97c-0.308-0.409,0.487-0.748,0.877-0.707
		C58.846,15.379,59.722,15.849,60.244,16.336L60.244,16.336z M54.932,19.132c-1.888,0.476-2.772-1.038-2.96-1.442
		c0.763-0.78,2.06-2.057,2.851-2.705c-0.522-0.482-0.738-1.28-1.666-1.349c-0.81,0.022-2.697,0.939-3.028,3.337
		c-0.317,2.3,1.843,3.544,3.555,3.613c0.571,0,1.283-0.739,1.637-0.913C56.078,19.303,55.796,18.935,54.932,19.132L54.932,19.132z
		 M51.834,17.236c-0.477-1.534-0.297-2.061,0.655-2.819c0.214,0.528,0.761,0.908,1.065,1.092
		C53.017,16.032,52.182,16.979,51.834,17.236L51.834,17.236z M49.651,15.871c0.323-0.316-0.021-0.546-0.308-0.271
		c-0.213-0.255-0.759-0.817-1.051-1.161c-0.31,0.258-1.021,0.685-1.417,0.906c-0.311-0.355-0.693-0.355-1.314-0.842
		c-0.344,0.264-1.106,0.822-1.516,1.318c0.723,0.211,1.268,0.253,1.313,0.873c0.027,0.505-0.053,3.613-0.01,4.183
		c0.387,0.084,0.86,0.046,1.409,0.018c0.043-0.445,0.022-4.343,0.022-4.775c0.208-0.116,0.422-0.23,0.524-0.326
		c0.229,0.174,0.68,0.832,1.043,1.047C48.626,16.634,49.343,16.18,49.651,15.871L49.651,15.871z M43.689,23.922
		c-0.82,0.074-2.005,1.033-2.358,1.859c-0.143,0.33,0.06,1.521,0.211,1.651c0.107,0.094,0.192,0.159,0.286,0.232
		c-0.539,0.5-1.044,0.927-1.029,1.671c0.023,0.716,0.592,1.354,1.328,1.688c0.395-0.6,1.01-0.968,1.667-1.122
		c0.054,0.572,0.188,0.991,0.563,1.279c0.27-0.298,1.349-1.23,1.557-1.441c0.228-0.215,0.058-0.473-0.208-0.215
		c-0.158,0.147-0.544-0.071-0.658-0.258c0-0.313,0-3.61,0.138-3.76C44.698,24.978,44.235,23.863,43.689,23.922L43.689,23.922z
		 M43.754,27.269c-0.915,0.593-1.207,0.573-1.836-0.137c-0.313-0.362-0.285-1.046-0.141-1.305c0.284-0.446,0.782-0.896,1.02-0.891
		c0.206,0.014,0.943,0.91,0.892,1.299C43.728,26.452,43.743,26.851,43.754,27.269L43.754,27.269z M43.763,28.918
		c-0.005,0.178,0,0.33,0.003,0.491c-0.177,0.044-0.375,0.086-0.623,0.211c-0.335-0.285-1.924-0.805-0.883-1.644
		c0.638,0.376,0.885,0.083,1.502-0.299C43.768,28.215,43.763,28.725,43.763,28.918L43.763,28.918z M43.05,21.937
		c-0.111-0.143-0.324-0.372-0.333-0.66c0-0.189,0.022-2.178,0.022-2.425c0-0.235-0.469-0.21-0.469,0
		c-0.021,0.354,0.031,0.955-0.284,1.443c-0.872,1.349-2.533,1.905-3.701,0.25c-0.397-0.549-0.491-1.38-0.542-1.974
		c-0.079-0.793,0.522-1.817,0.557-1.911c1.485-1.947,3.547-0.501,3.713,0.291c0.11,0.528,0.229,1.174,0.229,1.514
		c-0.014,0.225,0.474,0.202,0.482-0.031c0-0.242,0.014-3.234,0.014-3.443c0.009-0.195-0.393-0.258-0.401,0
		c-0.021,0.473-0.301,0.513-0.664,0.397c-0.752-0.224-2.417-0.581-3.386-0.025c-0.852,0.501-2.158,1.676-2.134,3.153
		c0.025,2.431,0.943,2.636,2.009,3.29c0.998,0.587,2.377,0.207,3.638-0.157c0.5-0.137,0.562,0.18,0.802,0.534
		C43.011,22.728,43.34,22.379,43.05,21.937L43.05,21.937z M36.312,25.373c-0.841,1.287-1.302,3.316,0.156,4.504
		c0.686,0.574,1.254,1.021,2.654,0.771c0.278-0.556,0.402-0.74,0.894-1.381c-0.965,0.156-1.709-0.019-2.414-0.552
		c-1.451-1.125-1.002-2.938-0.574-3.557c0.782-1.163,1.895,0.499,2.094,0.725c0.258-0.309,0.706-0.75,1.142-1.094
		c-0.433-0.571-0.786-1.102-1.079-1.446C38.257,23.678,36.894,24.509,36.312,25.373L36.312,25.373z M36.912,36.495
		c-0.311,2.314,1.871,3.69,2.919,4.136c0.265-0.532,0.8-1.396,1.326-2c0.4-0.466-0.041-0.589-0.399-0.231
		c-0.483,0.528-1.925,0.027-2.307-0.67c0.696-0.524,2.512-2.043,3.302-2.691c-0.522-0.488-1.328-1.705-1.453-2.403
		C39.595,33.111,37.266,34.089,36.912,36.495L36.912,36.495z M39.165,33.988c0.21,0.536,0.881,1.556,1.184,1.736
		c-0.521,0.522-1.801,1.39-2.161,1.643C37.533,36.545,37.18,35.203,39.165,33.988L39.165,33.988z M43.936,33.148
		c-0.453,0.427-0.809,0.817-1.47,1.34c0.307,0.353,0.829,0.799,0.875,1.406c0.04,0.614,0.017,3.462,0.055,4.174
		c0.485,0,0.398,0.051,1.231,0.019c-0.082-0.484-0.013-4.18-0.013-4.708c0.312-0.298,0.357-0.344,0.714-0.61
		c0.257,0.225,0.86,0.358,0.86,0.754c0,0.398,0.119,2.152-0.021,2.8c-0.174,0.791-0.097,1.359,0.33,2.158
		c0.324-0.361,1.534-1.208,1.796-1.419c0.259-0.224,0.124-0.393-0.21-0.301c-0.359,0.077-0.422,0.147-0.422-0.08
		c0-0.426-0.169-2.351-0.194-3.58c-0.044-1.232-0.646-1.595-0.992-1.765c-0.353,0.392-1.141,0.887-1.612,1.288
		C44.506,34.361,44.33,33.771,43.936,33.148L43.936,33.148z M48.895,30.167c0.415-0.332,0.721-0.891,0.891-1.023
		c0.319-0.263,0.057-0.533-0.213-0.28c-0.215,0.211-0.78-0.28-0.805-0.313c-0.184-0.215-0.452-3.035-0.327-3.099
		c0,0,1.794-0.221,2.03-0.217c0.178,0.013,0.201-0.559,0.01-0.568c-0.292,0-1.661,0.188-1.709,0.055
		c-0.076-0.299-0.26-1.304,0.189-2.167c0.212-0.376-0.006-0.74-0.146-0.356c-0.159,0.393-1.283,2.137-2.009,2.424
		c-0.593,0.244-0.526,0.38-0.144,0.477c0.303,0.059,0.617,0.421,0.559,0.417c-0.06,1.446-0.202,3.232,0.248,3.99
		C47.754,29.984,48.54,30.479,48.895,30.167L48.895,30.167z M55.057,30.809c-0.222,0.437-0.58,0.837-1.232,1.134
		c0.397,0.346,0.915,0.792,1.256,1.017c0.392-0.437,0.752-0.841,1.204-1.269C55.837,31.603,55.32,31.379,55.057,30.809
		L55.057,30.809z M52.233,29.212c0.57-0.047,1.488,0.294,2.507,0.211c1.211-0.087,2.162-1.964,1.639-3.425
		c-0.487-1.387-2.033-1.143-3.075-1.475c-0.957-0.261-1.353-0.863-0.309-1.548c1.228-0.792,2.75,0.478,2.896,0.746
		c0.225,0.404,0.413,0.397,0.413-0.128c0.032-1.148-0.073-0.499-0.188-1.58c-0.038-0.386-0.32-0.419-0.346-0.048
		c-0.025,0.377-0.485,0.262-0.831,0.262c-0.352-0.008-1.376-0.164-2.26,0.327c-0.563,0.327-1.85,1.336-1.129,2.545
		c0.421,0.706,2.893,1.279,3.507,1.686c0.619,0.403,0.757,1.441,0.167,1.917c-0.735,0.584-2.734,0.092-3.042-0.262
		c-0.405-0.448-0.559-0.817-0.645-1.336c-0.085-0.532-0.532-0.486-0.532,0c0,0.483,0.114,2.145,0.202,2.535
		c0.08,0.406,0.485,0.271,0.523-0.036C51.776,29.317,51.967,29.234,52.233,29.212L52.233,29.212z M49.643,34.392
		c-0.47,0.353,0.554,0.845,0.462,0.818c0.037,1.451-0.173,2.942,0.32,3.679c0.313,0.458,1.287,0.794,1.455,0.356
		c0.164-0.442,0.902-1.343,1.067-1.496c0.307-0.271,0.036-0.519-0.222-0.252c-0.534,0.565-0.832,0.304-1.225-0.07
		c-0.19-0.216-0.262-2.245-0.125-2.305c0,0,0.98-0.143,1.215-0.143c0.182,0,0.167-0.563-0.024-0.563
		c-0.294,0-1.168,0.008-1.219-0.129c-0.109-0.281,0.174-1.649,0.224-2.263c0.041-0.433-0.192-0.57-0.309-0.167
		C51.137,32.251,50.197,33.988,49.643,34.392L49.643,34.392z"/>
</g>
</svg>
